<mxfile host="Electron" modified="2023-09-10T06:42:25.312Z" agent="Mozilla/5.0 (Windows NT 10.0; Win64; x64) AppleWebKit/537.36 (KHTML, like Gecko) draw.io/21.6.5 Chrome/114.0.5735.243 Electron/25.3.1 Safari/537.36" etag="R2xDGFBF5hjvKvqwqGeS" version="21.6.5" type="device">
  <diagram name="Seite-1" id="9AULYiwN9va_j8q-xmPx">
    <mxGraphModel dx="1396" dy="575" grid="1" gridSize="10" guides="1" tooltips="1" connect="1" arrows="1" fold="1" page="1" pageScale="1" pageWidth="827" pageHeight="1169" math="0" shadow="0">
      <root>
        <mxCell id="0" />
        <mxCell id="1" parent="0" />
        <mxCell id="zU_ybsm64L2bYuL4fbXu-1" value="&lt;h1&gt;&lt;span style=&quot;background-color: rgb(0, 255, 128);&quot;&gt;Kita&lt;/span&gt;&lt;/h1&gt;&lt;div&gt;&lt;b style=&quot;background-color: rgb(0, 255, 128);&quot;&gt;Webanwendung oder App&lt;/b&gt;&lt;/div&gt;&lt;div&gt;&lt;b style=&quot;background-color: rgb(0, 255, 128);&quot;&gt;bzw&amp;nbsp;&lt;/b&gt;&lt;/div&gt;&lt;b style=&quot;background-color: rgb(0, 255, 128);&quot;&gt;progressive web app&lt;/b&gt;" style="text;html=1;strokeColor=none;fillColor=none;spacing=5;spacingTop=-20;whiteSpace=wrap;overflow=hidden;rounded=0;align=center;" parent="1" vertex="1">
          <mxGeometry x="330" y="20" width="180" height="100" as="geometry" />
        </mxCell>
        <mxCell id="zU_ybsm64L2bYuL4fbXu-3" value="Kalender" style="rounded=1;whiteSpace=wrap;html=1;fillColor=#0085fc;fontColor=#ffffff;strokeColor=#006EAF;" parent="1" vertex="1">
          <mxGeometry x="360" y="620" width="80" height="50" as="geometry" />
        </mxCell>
        <mxCell id="zU_ybsm64L2bYuL4fbXu-56" value="" style="edgeStyle=orthogonalEdgeStyle;rounded=0;orthogonalLoop=1;jettySize=auto;html=1;" parent="1" source="zU_ybsm64L2bYuL4fbXu-7" target="zU_ybsm64L2bYuL4fbXu-55" edge="1">
          <mxGeometry relative="1" as="geometry" />
        </mxCell>
        <mxCell id="zU_ybsm64L2bYuL4fbXu-7" value="Impressum" style="rounded=1;whiteSpace=wrap;html=1;fillColor=#0085fc;fontColor=#ffffff;strokeColor=#006EAF;" parent="1" vertex="1">
          <mxGeometry x="670" y="620" width="100" height="50" as="geometry" />
        </mxCell>
        <mxCell id="zU_ybsm64L2bYuL4fbXu-10" value="Zugang nur mit Anmeldung und Authentifizierung&lt;br&gt;nur für Zeitraum&lt;br&gt;in dem das Kind die Kita&lt;br&gt;besucht" style="ellipse;whiteSpace=wrap;html=1;strokeColor=#33FF33;fillColor=#FFFF66;" parent="1" vertex="1">
          <mxGeometry x="560" y="20" width="250" height="120" as="geometry" />
        </mxCell>
        <mxCell id="zU_ybsm64L2bYuL4fbXu-11" value="" style="endArrow=classic;html=1;rounded=0;exitX=0.5;exitY=1;exitDx=0;exitDy=0;entryX=0.5;entryY=0;entryDx=0;entryDy=0;" parent="1" source="zU_ybsm64L2bYuL4fbXu-3" target="zU_ybsm64L2bYuL4fbXu-51" edge="1">
          <mxGeometry width="50" height="50" relative="1" as="geometry">
            <mxPoint x="350" y="850" as="sourcePoint" />
            <mxPoint x="590" y="740" as="targetPoint" />
          </mxGeometry>
        </mxCell>
        <mxCell id="zU_ybsm64L2bYuL4fbXu-12" value="Aufteilung eventuell zwischen: &lt;br&gt;Eltern und Elternbeirat &lt;br&gt;für Unterschiedliche Infos" style="shape=process;whiteSpace=wrap;html=1;backgroundOutline=1;" parent="1" vertex="1">
          <mxGeometry x="230" y="140" width="320" height="60" as="geometry" />
        </mxCell>
        <mxCell id="zU_ybsm64L2bYuL4fbXu-16" value="Foto&#39;s:&lt;br&gt;je nach&lt;br&gt;Datenschutz" style="rounded=1;whiteSpace=wrap;html=1;fillColor=#0085fc;fontColor=#ffffff;strokeColor=#006EAF;" parent="1" vertex="1">
          <mxGeometry x="270" y="620" width="80" height="50" as="geometry" />
        </mxCell>
        <mxCell id="zU_ybsm64L2bYuL4fbXu-18" value="" style="endArrow=classic;html=1;rounded=0;exitX=0.5;exitY=1;exitDx=0;exitDy=0;entryX=0.5;entryY=0;entryDx=0;entryDy=0;" parent="1" source="zU_ybsm64L2bYuL4fbXu-16" target="zU_ybsm64L2bYuL4fbXu-50" edge="1">
          <mxGeometry width="50" height="50" relative="1" as="geometry">
            <mxPoint x="319.5" y="730" as="sourcePoint" />
            <mxPoint x="319.5" y="790" as="targetPoint" />
          </mxGeometry>
        </mxCell>
        <mxCell id="zU_ybsm64L2bYuL4fbXu-19" value="Kontakt:" style="rounded=1;whiteSpace=wrap;html=1;fillColor=#0085fc;fontColor=#ffffff;strokeColor=#006EAF;" parent="1" vertex="1">
          <mxGeometry x="450" y="620" width="80" height="50" as="geometry" />
        </mxCell>
        <mxCell id="zU_ybsm64L2bYuL4fbXu-20" value="entweder:&lt;br&gt;Kontaktformular&lt;br&gt;oder&lt;br&gt;nur per Mail&lt;br&gt;&lt;br&gt;&lt;b&gt;Wichtige Info&lt;/b&gt;&lt;br&gt;Antwort nur zu Bürozeiten" style="whiteSpace=wrap;html=1;aspect=fixed;" parent="1" vertex="1">
          <mxGeometry x="430" y="840" width="120" height="120" as="geometry" />
        </mxCell>
        <mxCell id="zU_ybsm64L2bYuL4fbXu-21" value="" style="endArrow=classic;html=1;rounded=0;exitX=0.5;exitY=1;exitDx=0;exitDy=0;entryX=0.5;entryY=0;entryDx=0;entryDy=0;" parent="1" source="zU_ybsm64L2bYuL4fbXu-19" target="zU_ybsm64L2bYuL4fbXu-20" edge="1">
          <mxGeometry width="50" height="50" relative="1" as="geometry">
            <mxPoint x="489.5" y="700" as="sourcePoint" />
            <mxPoint x="489.5" y="760" as="targetPoint" />
          </mxGeometry>
        </mxCell>
        <mxCell id="zU_ybsm64L2bYuL4fbXu-25" value="" style="edgeStyle=orthogonalEdgeStyle;rounded=0;orthogonalLoop=1;jettySize=auto;html=1;" parent="1" source="zU_ybsm64L2bYuL4fbXu-23" target="zU_ybsm64L2bYuL4fbXu-24" edge="1">
          <mxGeometry relative="1" as="geometry" />
        </mxCell>
        <mxCell id="zU_ybsm64L2bYuL4fbXu-23" value="Einrichtung:" style="rounded=1;whiteSpace=wrap;html=1;fillColor=#0085fc;fontColor=#ffffff;strokeColor=#006EAF;" parent="1" vertex="1">
          <mxGeometry x="10" y="620" width="80" height="50" as="geometry" />
        </mxCell>
        <mxCell id="zU_ybsm64L2bYuL4fbXu-24" value="Vorstellung&lt;br&gt;Text&lt;br&gt;und&lt;br&gt;Foto&#39;s" style="rounded=1;whiteSpace=wrap;html=1;" parent="1" vertex="1">
          <mxGeometry x="5" y="760" width="90" height="60" as="geometry" />
        </mxCell>
        <mxCell id="zU_ybsm64L2bYuL4fbXu-26" value="" style="edgeStyle=orthogonalEdgeStyle;rounded=0;orthogonalLoop=1;jettySize=auto;html=1;" parent="1" source="zU_ybsm64L2bYuL4fbXu-27" target="zU_ybsm64L2bYuL4fbXu-28" edge="1">
          <mxGeometry relative="1" as="geometry" />
        </mxCell>
        <mxCell id="zU_ybsm64L2bYuL4fbXu-27" value="Leitung" style="rounded=1;whiteSpace=wrap;html=1;fillColor=#0085fc;fontColor=#ffffff;strokeColor=#006EAF;" parent="1" vertex="1">
          <mxGeometry x="95" y="620" width="80" height="50" as="geometry" />
        </mxCell>
        <mxCell id="zU_ybsm64L2bYuL4fbXu-28" value="Vorstellung&lt;br&gt;Text&lt;br&gt;und&lt;br&gt;Foto&#39;s" style="rounded=1;whiteSpace=wrap;html=1;" parent="1" vertex="1">
          <mxGeometry x="87.5" y="840" width="95" height="60" as="geometry" />
        </mxCell>
        <mxCell id="zU_ybsm64L2bYuL4fbXu-29" value="" style="edgeStyle=orthogonalEdgeStyle;rounded=0;orthogonalLoop=1;jettySize=auto;html=1;" parent="1" source="zU_ybsm64L2bYuL4fbXu-30" target="zU_ybsm64L2bYuL4fbXu-31" edge="1">
          <mxGeometry relative="1" as="geometry" />
        </mxCell>
        <mxCell id="zU_ybsm64L2bYuL4fbXu-30" value="Erzieher" style="rounded=1;whiteSpace=wrap;html=1;fillColor=#0085fc;fontColor=#ffffff;strokeColor=#006EAF;" parent="1" vertex="1">
          <mxGeometry x="180" y="620" width="80" height="50" as="geometry" />
        </mxCell>
        <mxCell id="zU_ybsm64L2bYuL4fbXu-31" value="Vorstellung&lt;br&gt;Text&lt;br&gt;und&lt;br&gt;Foto&#39;s" style="rounded=1;whiteSpace=wrap;html=1;" parent="1" vertex="1">
          <mxGeometry x="180" y="760" width="80" height="60" as="geometry" />
        </mxCell>
        <mxCell id="zU_ybsm64L2bYuL4fbXu-54" value="" style="edgeStyle=orthogonalEdgeStyle;rounded=0;orthogonalLoop=1;jettySize=auto;html=1;" parent="1" source="zU_ybsm64L2bYuL4fbXu-32" target="zU_ybsm64L2bYuL4fbXu-52" edge="1">
          <mxGeometry relative="1" as="geometry" />
        </mxCell>
        <mxCell id="zU_ybsm64L2bYuL4fbXu-32" value="Kitazeitung" style="rounded=1;whiteSpace=wrap;html=1;fillColor=#0085fc;fontColor=#ffffff;strokeColor=#006EAF;" parent="1" vertex="1">
          <mxGeometry x="540" y="620" width="100" height="50" as="geometry" />
        </mxCell>
        <mxCell id="zU_ybsm64L2bYuL4fbXu-35" value="Navbar" style="html=1;shadow=0;dashed=0;fillColor=#0085FC;strokeColor=none;fontSize=16;fontColor=#ffffff;align=left;spacing=15;" parent="1" vertex="1">
          <mxGeometry x="-2" y="220" width="830" height="60" as="geometry" />
        </mxCell>
        <mxCell id="zU_ybsm64L2bYuL4fbXu-36" value="Home/Pinnwand" style="fillColor=none;strokeColor=none;fontSize=10;fontColor=#ffffff;align=center;" parent="zU_ybsm64L2bYuL4fbXu-35" vertex="1">
          <mxGeometry width="60" height="60" relative="1" as="geometry">
            <mxPoint x="80" as="offset" />
          </mxGeometry>
        </mxCell>
        <mxCell id="zU_ybsm64L2bYuL4fbXu-37" value="Kalender" style="fillColor=none;strokeColor=none;fontSize=10;fontColor=#79BFFD;align=center;" parent="zU_ybsm64L2bYuL4fbXu-35" vertex="1">
          <mxGeometry width="50" height="40" relative="1" as="geometry">
            <mxPoint x="150" y="10" as="offset" />
          </mxGeometry>
        </mxCell>
        <mxCell id="zU_ybsm64L2bYuL4fbXu-38" value="Einrichtung" style="fillColor=none;strokeColor=none;fontSize=10;fontColor=#79BFFD;align=center;spacingRight=0;" parent="zU_ybsm64L2bYuL4fbXu-35" vertex="1">
          <mxGeometry width="60" height="40" relative="1" as="geometry">
            <mxPoint x="193" y="10" as="offset" />
          </mxGeometry>
        </mxCell>
        <mxCell id="zU_ybsm64L2bYuL4fbXu-40" value="Search" style="html=1;shadow=0;dashed=0;shape=mxgraph.bootstrap.rrect;rSize=5;fontSize=14;fontColor=#ffffff;strokeColor=#ffffff;fillColor=none;" parent="zU_ybsm64L2bYuL4fbXu-35" vertex="1">
          <mxGeometry x="1" width="70" height="40" relative="1" as="geometry">
            <mxPoint x="-80" y="10" as="offset" />
          </mxGeometry>
        </mxCell>
        <mxCell id="zU_ybsm64L2bYuL4fbXu-41" value="Search" style="html=1;shadow=0;dashed=0;shape=mxgraph.bootstrap.rrect;rSize=5;fontSize=14;fontColor=#6C767D;strokeColor=#CED4DA;fillColor=#ffffff;align=left;spacing=10;" parent="zU_ybsm64L2bYuL4fbXu-35" vertex="1">
          <mxGeometry x="1" width="180" height="40" relative="1" as="geometry">
            <mxPoint x="-270" y="10" as="offset" />
          </mxGeometry>
        </mxCell>
        <mxCell id="zU_ybsm64L2bYuL4fbXu-47" value="Fotos" style="fillColor=none;strokeColor=none;fontSize=10;fontColor=#79BFFD;align=center;" parent="zU_ybsm64L2bYuL4fbXu-35" vertex="1">
          <mxGeometry x="323" y="10" width="57" height="40" as="geometry" />
        </mxCell>
        <mxCell id="zU_ybsm64L2bYuL4fbXu-48" value="Kontakt" style="fillColor=none;strokeColor=none;fontSize=10;fontColor=#79BFFD;align=center;" parent="zU_ybsm64L2bYuL4fbXu-35" vertex="1">
          <mxGeometry x="460" y="10" width="60" height="40" as="geometry" />
        </mxCell>
        <mxCell id="zU_ybsm64L2bYuL4fbXu-49" value="Kitazeitung" style="fillColor=none;strokeColor=none;fontSize=10;fontColor=#79BFFD;align=center;" parent="zU_ybsm64L2bYuL4fbXu-35" vertex="1">
          <mxGeometry x="370" y="10" width="60" height="40" as="geometry" />
        </mxCell>
        <mxCell id="zU_ybsm64L2bYuL4fbXu-50" value="allgemeine Fotos&lt;br style=&quot;border-color: var(--border-color);&quot;&gt;Ausflugsfotos&lt;br style=&quot;border-color: var(--border-color);&quot;&gt;Veranstalltungsfotos" style="rounded=0;whiteSpace=wrap;html=1;" parent="1" vertex="1">
          <mxGeometry x="250" y="840" width="120" height="60" as="geometry" />
        </mxCell>
        <mxCell id="zU_ybsm64L2bYuL4fbXu-51" value="Schließtage&lt;br style=&quot;border-color: var(--border-color);&quot;&gt;Ferien&lt;br style=&quot;border-color: var(--border-color);&quot;&gt;Ausflüge&lt;br style=&quot;border-color: var(--border-color);&quot;&gt;Feste&lt;br style=&quot;border-color: var(--border-color);&quot;&gt;Veranstaltungen&lt;br style=&quot;border-color: var(--border-color);&quot;&gt;Treffen" style="rounded=0;whiteSpace=wrap;html=1;" parent="1" vertex="1">
          <mxGeometry x="340" y="730" width="120" height="100" as="geometry" />
        </mxCell>
        <mxCell id="zU_ybsm64L2bYuL4fbXu-52" value="aktuelle oben&lt;br&gt;ältere im Archiv" style="rounded=0;whiteSpace=wrap;html=1;" parent="1" vertex="1">
          <mxGeometry x="535" y="760" width="110" height="60" as="geometry" />
        </mxCell>
        <mxCell id="zU_ybsm64L2bYuL4fbXu-55" value="Telefon&lt;br&gt;Email&lt;br&gt;Fax" style="rounded=0;whiteSpace=wrap;html=1;" parent="1" vertex="1">
          <mxGeometry x="665" y="760" width="110" height="60" as="geometry" />
        </mxCell>
        <mxCell id="zU_ybsm64L2bYuL4fbXu-33" value="&lt;span style=&quot;background-color: rgb(255, 51, 51);&quot;&gt;&lt;font color=&quot;#ffffff&quot;&gt;Pinnwand:&lt;/font&gt;&lt;/span&gt;" style="swimlane;whiteSpace=wrap;html=1;" parent="1" vertex="1">
          <mxGeometry x="240" y="300" width="320" height="300" as="geometry" />
        </mxCell>
        <mxCell id="zU_ybsm64L2bYuL4fbXu-34" value="" style="group" parent="zU_ybsm64L2bYuL4fbXu-33" connectable="0" vertex="1">
          <mxGeometry x="10" width="310" height="280" as="geometry" />
        </mxCell>
        <mxCell id="zU_ybsm64L2bYuL4fbXu-4" value="Aktuelle Themen:" style="rounded=1;whiteSpace=wrap;html=1;" parent="zU_ybsm64L2bYuL4fbXu-34" vertex="1">
          <mxGeometry x="20" y="40" width="120" height="60" as="geometry" />
        </mxCell>
        <mxCell id="zU_ybsm64L2bYuL4fbXu-5" value="Wichtige Infos:" style="rounded=1;whiteSpace=wrap;html=1;" parent="zU_ybsm64L2bYuL4fbXu-34" vertex="1">
          <mxGeometry x="140" y="40" width="120" height="60" as="geometry" />
        </mxCell>
        <mxCell id="zU_ybsm64L2bYuL4fbXu-9" value="umfragen:" style="rounded=1;whiteSpace=wrap;html=1;" parent="zU_ybsm64L2bYuL4fbXu-34" vertex="1">
          <mxGeometry x="90" y="150" width="120" height="60" as="geometry" />
        </mxCell>
        <mxCell id="zU_ybsm64L2bYuL4fbXu-13" value="" style="endArrow=classic;html=1;rounded=0;exitX=0.5;exitY=1;exitDx=0;exitDy=0;" parent="zU_ybsm64L2bYuL4fbXu-34" edge="1">
          <mxGeometry width="50" height="50" relative="1" as="geometry">
            <mxPoint x="110" y="90" as="sourcePoint" />
            <mxPoint x="110" y="150" as="targetPoint" />
          </mxGeometry>
        </mxCell>
        <mxCell id="zU_ybsm64L2bYuL4fbXu-14" value="" style="endArrow=classic;html=1;rounded=0;exitX=0.5;exitY=1;exitDx=0;exitDy=0;" parent="zU_ybsm64L2bYuL4fbXu-34" edge="1">
          <mxGeometry width="50" height="50" relative="1" as="geometry">
            <mxPoint x="170" y="90" as="sourcePoint" />
            <mxPoint x="170" y="150" as="targetPoint" />
          </mxGeometry>
        </mxCell>
        <mxCell id="zU_ybsm64L2bYuL4fbXu-59" value="Öffnungszeiten" style="shape=trapezoid;perimeter=trapezoidPerimeter;whiteSpace=wrap;html=1;fixedSize=1;" parent="1" vertex="1">
          <mxGeometry x="87.5" y="540" width="632.5" height="60" as="geometry" />
        </mxCell>
        <mxCell id="-vsweqdalWwjyETVXFK9-1" value="" style="whiteSpace=wrap;html=1;" parent="1" vertex="1">
          <mxGeometry x="970" y="1100" width="120" height="60" as="geometry" />
        </mxCell>
      </root>
    </mxGraphModel>
  </diagram>
</mxfile>
